<svg id="logo" xmlns="http://www.w3.org/2000/svg" viewBox="0 0 48 48"><defs><style>.cls-1{fill: currentColor;fill-rule:evenodd;}</style></defs><path id="path" class="cls-1" d="M30.5,1.74l9.52,5.5c4.02,2.32,6.5,6.62,6.5,11.26v10.99c0,4.65-2.48,8.94-6.5,11.26l-9.52,5.5c-4.02,2.32-8.98,2.32-13.01,0l-9.52-5.5c-4.02-2.32-6.5-6.62-6.5-11.26v-10.99c0-4.65,2.48-8.94,6.5-11.26L17.49,1.74c4.02-2.32,8.98-2.32,13.01,0ZM5.86,18.58l14.89-8.6c2.01-1.16,4.49-1.16,6.5,0l8.35,4.82c1.34.77,2.17,2.21,2.17,3.76v.7c0,.83-.9,1.36-1.63.94l-9.98-5.76c-1.34-.77-2.99-.77-4.34,0l-13.81,7.98c-1.34.77-2.17,2.21-2.17,3.75v3.31c0,3.1,1.65,5.96,4.34,7.51l9.47,5.47c2.68,1.55,5.99,1.55,8.67,0l9.48-5.47c2.68-1.55,4.34-4.41,4.34-7.51v-.03l-14.89,8.6c-2.01,1.16-4.49,1.16-6.5,0l-8.34-4.82c-1.34-.77-2.17-2.21-2.17-3.75v-.69c0-.83.9-1.36,1.63-.94l9.97,5.75c1.34.77,2.99.77,4.33,0l13.81-7.97c1.34-.77,2.17-2.21,2.17-3.75v-3.33c0-3.1-1.65-5.96-4.34-7.51l-9.48-5.47c-2.68-1.55-5.99-1.55-8.67,0l-9.47,5.47c-2.68,1.55-4.34,4.41-4.34,7.51v.05Z"/></svg>